<?xml version="1.0" standalone="no"?>
<!DOCTYPE svg PUBLIC "-//W3C//DTD SVG 20010904//EN"
 "http://www.w3.org/TR/2001/REC-SVG-20010904/DTD/svg10.dtd">
<svg version="1.0" xmlns="http://www.w3.org/2000/svg"
 width="515.000000pt" height="515.000000pt" viewBox="0 0 515.000000 515.000000"
 preserveAspectRatio="xMidYMid meet">
<metadata>
Created by potrace 1.14, written by Peter Selinger 2001-2017
</metadata>
<g transform="translate(0.000000,515.000000) scale(0.100000,-0.100000)"
fill="#000000" stroke="none">
<path d="M2495 5099 c-38 -22 -86 -49 -105 -61 -47 -27 -416 -240 -855 -493
-198 -115 -388 -225 -423 -245 l-63 -38 33 -20 c122 -73 502 -285 512 -285 6
0 126 67 266 148 616 356 701 405 713 405 10 0 128 -67 714 -406 116 -68 224
-129 240 -137 27 -14 34 -11 295 137 147 83 267 154 268 157 0 4 -84 55 -187
114 -104 60 -221 128 -260 152 -40 23 -75 43 -78 43 -3 0 -22 11 -43 23 -77
49 -943 547 -950 547 -4 0 -38 -19 -77 -41z"/>
<path d="M876 3175 c0 -531 3 -967 5 -970 4 -3 582 -338 1437 -832 129 -74
239 -136 246 -139 12 -5 68 26 421 231 176 102 803 464 1035 597 124 71 231
134 237 140 10 8 13 216 13 945 l0 934 -58 -32 c-31 -18 -115 -66 -187 -107
-71 -41 -150 -86 -175 -100 -25 -14 -220 -125 -435 -247 -214 -123 -406 -231
-425 -242 -19 -11 -109 -62 -199 -113 l-164 -94 -61 34 c-34 18 -302 170 -596
338 -294 168 -553 315 -575 328 -22 12 -147 83 -278 158 -132 75 -240 136
-240 136 -1 0 -2 -434 -1 -965z m668 171 c61 -35 127 -73 146 -83 19 -11 177
-101 350 -200 376 -215 395 -225 484 -275 38 -21 75 -43 83 -49 10 -9 72 22
265 132 139 78 281 160 316 181 34 21 64 38 66 38 2 0 106 59 231 130 125 72
230 130 234 130 7 0 8 -827 1 -832 -5 -5 -124 -74 -180 -106 -19 -10 -240
-138 -490 -282 -250 -145 -462 -265 -471 -267 -8 -3 -202 103 -430 235 -228
132 -484 280 -569 329 l-155 89 -3 447 c-1 246 1 447 4 447 3 0 56 -29 118
-64z"/>
<path d="M567 943 c-31 -5 -32 -25 0 -33 19 -5 20 -13 21 -147 l1 -141 -25 -6
c-14 -4 -24 -12 -21 -19 5 -15 172 -14 221 3 74 24 100 104 50 154 -15 14 -33
26 -42 26 -10 0 -7 8 12 26 35 35 35 82 0 114 -22 22 -35 25 -107 26 -45 0
-95 -1 -110 -3z m153 -28 c18 -6 26 -21 35 -64 5 -29 -29 -68 -57 -65 -13 1
-30 3 -38 3 -12 1 -15 14 -14 64 1 34 2 65 3 70 1 7 34 4 71 -8z m46 -180 c22
-33 21 -73 -2 -96 -19 -18 -113 -36 -115 -21 -1 4 -2 37 -3 75 l-2 67 53 0
c45 0 55 -4 69 -25z"/>
<path d="M2164 939 c-5 -8 0 -11 39 -23 16 -5 17 -288 1 -293 -6 -2 -20 -10
-30 -18 -19 -14 -19 -14 1 -16 52 -3 276 -1 279 2 2 2 6 23 10 47 8 51 -14 59
-34 13 -14 -35 -18 -37 -95 -36 l-60 0 -3 71 -3 70 35 -1 c36 -1 51 -9 51 -28
0 -7 7 -13 16 -15 12 -2 16 7 17 44 1 25 5 50 8 55 3 5 -2 9 -10 9 -8 0 -20
-8 -25 -19 -8 -13 -22 -19 -51 -19 l-40 -1 0 70 0 69 68 0 68 0 9 -32 c14 -47
29 -41 33 13 l3 46 -140 0 c-78 1 -143 -3 -147 -8z"/>
<path d="M860 851 c0 -5 9 -15 21 -22 18 -13 21 -25 22 -108 2 -88 1 -94 -20
-104 -25 -11 -30 -26 -10 -28 86 -6 127 -3 127 9 0 8 -9 16 -20 19 -11 3 -20
8 -21 12 0 3 -1 46 -2 95 -2 82 0 90 21 104 37 24 25 32 -48 32 -38 0 -70 -4
-70 -9z"/>
<path d="M1095 842 c-40 -25 -51 -40 -62 -82 -32 -121 80 -217 192 -164 56 26
77 66 72 137 -3 49 -8 63 -34 89 -41 40 -121 50 -168 20z m100 -20 c26 -19 38
-46 42 -99 4 -49 1 -62 -17 -85 -14 -19 -31 -28 -48 -28 -53 1 -83 44 -84 121
0 66 22 99 65 99 17 0 37 -4 42 -8z"/>
<path d="M1330 846 c0 -8 9 -18 20 -21 18 -6 20 -15 20 -105 0 -90 -2 -99 -20
-105 -22 -7 -27 -24 -7 -26 14 -1 75 -1 95 0 19 2 14 19 -8 26 -18 6 -20 15
-20 82 l0 76 67 -95 c43 -62 72 -95 82 -93 9 2 19 4 23 4 4 1 9 54 10 119 3
114 4 117 26 120 48 7 15 27 -46 28 -64 2 -79 -9 -39 -27 20 -9 22 -17 23 -80
0 -38 -2 -69 -5 -69 -4 0 -35 41 -70 90 -64 90 -64 90 -108 90 -31 0 -43 -4
-43 -14z"/>
<path d="M1650 846 c0 -7 9 -16 20 -19 18 -5 20 -14 20 -105 0 -92 -2 -101
-20 -107 -11 -3 -20 -12 -20 -18 0 -8 23 -12 70 -12 47 0 70 4 70 12 0 6 -9
15 -20 18 -18 6 -20 15 -20 111 0 97 1 104 20 104 11 0 20 7 20 15 0 12 -14
15 -70 15 -53 0 -70 -3 -70 -14z"/>
<path d="M1883 840 c-41 -25 -66 -74 -65 -125 4 -87 46 -130 127 -130 58 0
115 29 96 48 -8 8 -14 8 -23 -1 -7 -7 -28 -12 -48 -12 -38 0 -69 19 -87 55
-14 26 -8 112 9 132 32 39 108 31 108 -12 0 -22 16 -42 25 -33 3 2 7 20 10 40
5 30 2 39 -14 47 -32 17 -103 13 -138 -9z"/>
<path d="M2476 852 c-3 -6 4 -17 17 -25 21 -13 23 -22 22 -105 -1 -83 -3 -92
-25 -111 -18 -14 -21 -21 -10 -21 74 -6 94 -4 108 7 17 12 15 13 -20 17 -9 1
-13 25 -14 79 -1 43 2 74 6 70 4 -4 35 -47 69 -95 43 -59 67 -85 79 -83 9 2
19 4 22 4 3 1 5 54 5 118 0 116 1 117 24 123 51 12 32 27 -34 28 -47 0 -65 -3
-65 -13 0 -7 9 -15 20 -18 18 -5 20 -14 20 -82 l0 -78 -68 94 c-65 90 -70 94
-109 97 -23 2 -44 -1 -47 -6z"/>
<path d="M2874 841 c-47 -29 -75 -74 -75 -123 -2 -98 45 -140 151 -137 84 2
97 9 94 50 -2 23 4 38 19 50 22 18 22 18 -23 20 -93 3 -141 -13 -80 -26 27 -6
31 -11 28 -33 -3 -23 -8 -27 -40 -30 -31 -3 -43 2 -63 24 -35 38 -38 121 -6
164 31 43 121 40 121 -4 0 -23 22 -41 34 -29 13 14 6 81 -10 87 -34 13 -119 6
-150 -13z"/>
<path d="M3100 844 c0 -13 12 -18 33 -15 8 1 9 -8 9 -104 0 -104 0 -103 -23
-110 -40 -13 -13 -28 51 -28 67 0 86 12 48 30 -22 10 -23 16 -22 104 2 83 4
95 23 107 36 24 24 32 -49 31 -53 -1 -70 -5 -70 -15z"/>
<path d="M3265 850 c-3 -6 5 -15 19 -21 24 -11 25 -14 24 -110 -1 -71 -4 -99
-13 -99 -7 0 -18 -7 -25 -15 -13 -16 -11 -17 45 -17 59 0 75 3 75 12 0 5 -10
12 -23 15 -21 6 -23 11 -23 76 1 38 3 69 6 69 3 0 35 -41 70 -90 41 -58 69
-89 78 -85 8 3 18 5 23 5 6 0 9 8 8 18 -1 9 -1 63 0 119 1 96 2 102 23 105 12
2 23 9 26 16 3 10 -11 12 -59 10 -62 -3 -90 -20 -49 -31 21 -5 23 -18 21 -101
0 -21 -2 -41 -5 -43 -2 -2 -32 35 -65 84 -61 87 -63 88 -106 90 -24 1 -47 -2
-50 -7z"/>
<path d="M3590 843 c0 -7 10 -15 23 -18 21 -6 22 -10 20 -102 -2 -94 -5 -104
-38 -116 -5 -3 -7 -8 -3 -12 8 -8 216 -13 227 -5 15 10 18 60 5 71 -11 9 -16
6 -24 -17 -9 -25 -15 -29 -48 -28 -68 2 -67 1 -67 44 0 22 3 40 7 40 3 0 13 3
21 6 10 3 18 -2 22 -15 12 -38 31 -24 34 24 2 46 -7 56 -29 30 -7 -8 -21 -15
-31 -15 -19 0 -27 26 -20 73 3 25 7 27 46 27 37 0 44 -3 49 -25 10 -40 36 -31
36 13 l0 37 -115 0 c-85 0 -115 -3 -115 -12z"/>
<path d="M3864 851 c-9 -10 -3 -20 16 -26 18 -6 20 -15 20 -105 0 -91 -2 -99
-21 -105 -11 -4 -18 -12 -16 -18 3 -9 141 -14 225 -8 7 1 12 16 12 41 0 46
-18 50 -36 9 -10 -23 -17 -25 -60 -24 l-49 1 2 39 c0 22 1 43 2 47 1 4 10 6
21 5 18 -1 24 -10 21 -29 0 -5 6 -8 14 -8 8 0 15 3 15 8 1 4 3 24 6 45 6 37
-5 48 -24 24 -6 -7 -21 -13 -34 -14 -21 -2 -23 2 -23 47 l0 50 47 0 c45 0 48
-2 48 -26 0 -41 33 -27 37 16 l4 35 -111 0 c-61 0 -113 -2 -116 -4z"/>
<path d="M4153 852 c-28 -4 -31 -32 -4 -32 17 0 20 -8 23 -47 6 -95 -2 -151
-23 -156 -10 -3 -19 -11 -19 -19 0 -10 17 -13 68 -12 71 0 90 11 51 31 -31 16
-41 83 -12 78 10 -2 23 -4 28 -4 6 -1 18 -18 27 -39 17 -36 60 -70 86 -66 6 1
19 2 27 3 24 2 18 18 -13 36 -15 9 -38 32 -51 50 l-22 33 25 26 c40 39 34 86
-16 112 -27 14 -109 17 -175 6z m142 -36 c40 -41 17 -96 -40 -96 l-33 0 1 53
c0 72 27 88 72 43z"/>
<path d="M4460 831 c-22 -22 -28 -35 -24 -57 7 -39 9 -41 71 -81 42 -27 54
-39 51 -56 -6 -43 -88 -31 -88 13 0 10 -7 20 -15 23 -22 9 -33 -62 -12 -78 27
-20 99 -17 135 5 26 16 32 26 32 53 0 37 -23 63 -77 91 -31 15 -53 43 -53 65
0 20 38 33 61 21 11 -7 18 -14 15 -17 -7 -7 12 -43 23 -43 5 0 11 18 13 40 4
45 -2 50 -64 50 -30 0 -46 -7 -68 -29z"/>
<path d="M890 258 c0 -32 15 -37 23 -8 7 29 47 27 48 -2 4 -88 -2 -144 -18
-156 -14 -10 -8 -12 38 -11 30 1 46 3 37 6 -21 5 -20 2 -22 102 -2 77 -1 79
22 79 16 0 26 -7 29 -19 8 -29 23 -23 23 9 l0 28 -90 -1 -90 0 0 -27z"/>
<path d="M2312 280 c-11 -8 -13 -38 -3 -44 5 -4 12 2 16 12 3 12 14 19 28 18
21 -1 22 -6 23 -84 1 -62 -2 -85 -12 -89 -29 -11 -12 -18 33 -14 40 3 45 5 30
16 -14 10 -17 28 -17 92 0 78 1 81 24 81 16 0 26 -7 29 -20 7 -26 25 -15 23
14 -1 21 -5 22 -84 23 -46 0 -86 -2 -90 -5z"/>
<path d="M2791 277 c-44 -15 -71 -53 -73 -99 -2 -71 50 -114 126 -104 42 6 56
18 56 52 0 11 5 25 12 32 9 9 0 12 -41 12 -32 0 -50 -4 -46 -10 3 -5 15 -10
25 -10 12 0 17 -6 15 -17 -2 -10 -4 -24 -4 -30 -1 -16 -35 -17 -62 -3 -69 38
-54 170 20 170 31 0 45 -9 54 -34 4 -10 10 -17 13 -14 8 9 13 47 6 52 -21 12
-71 14 -101 3z"/>
<path d="M3311 280 c-20 -5 -22 -7 -9 -18 23 -18 21 -159 -1 -172 -14 -8 -14
-10 -1 -11 51 -4 118 4 138 17 27 18 29 58 3 80 -16 14 -17 20 -6 41 8 14 11
32 8 39 -9 23 -81 37 -132 24z m87 -19 c8 -4 12 -21 10 -36 -2 -22 -9 -29 -30
-32 -27 -3 -28 -2 -28 37 0 41 16 52 48 31z m22 -101 c13 -23 5 -59 -13 -61
-60 -7 -57 -9 -57 37 0 42 1 44 30 44 19 0 33 -7 40 -20z"/>
<path d="M1117 224 c-35 -19 -49 -69 -30 -107 38 -75 148 -46 146 39 -2 63
-60 97 -116 68z m67 -26 c29 -41 14 -108 -24 -108 -42 0 -67 82 -34 114 21 22
40 20 58 -6z"/>
<path d="M1297 224 c-82 -44 -54 -154 38 -149 56 3 55 2 55 30 0 14 5 25 10
25 6 0 10 4 10 8 0 5 -18 8 -40 8 -41 0 -52 -9 -25 -20 25 -9 18 -36 -9 -36
-48 0 -70 81 -32 118 18 18 66 8 66 -13 0 -8 5 -15 10 -15 6 0 10 11 10 25 0
17 -6 25 -17 26 -10 0 -25 2 -34 4 -8 1 -27 -4 -42 -11z"/>
<path d="M1433 229 c-17 -7 -17 -7 0 -14 14 -6 17 -18 16 -57 -1 -27 -8 -56
-15 -63 -11 -11 -4 -14 40 -17 29 -1 61 -2 70 0 17 4 23 42 6 42 -5 0 -10 -6
-10 -14 0 -18 -57 -19 -64 -1 -7 18 9 37 29 33 12 -2 19 5 22 22 3 19 1 22 -9
12 -21 -21 -40 -14 -36 15 2 18 10 27 26 29 14 3 22 -1 22 -11 0 -8 4 -15 9
-15 14 0 21 29 9 36 -14 9 -94 11 -115 3z"/>
<path d="M1600 230 c-18 -5 -24 -12 -22 -26 6 -29 12 -31 19 -6 9 38 31 25 34
-20 6 -63 0 -88 -19 -88 -12 0 -13 -3 -5 -8 7 -4 29 -6 50 -4 30 4 34 7 21 16
-11 8 -15 27 -14 65 1 57 19 79 32 39 l7 -23 10 23 c6 12 8 24 6 26 -8 8 -94
12 -119 6z"/>
<path d="M1730 223 c0 -7 6 -12 13 -10 17 3 19 -100 1 -117 -11 -12 -10 -15 4
-18 9 -2 31 -1 47 2 25 5 27 7 12 13 -12 4 -17 15 -15 29 2 18 10 22 36 23 27
1 32 -3 32 -22 0 -12 -5 -25 -12 -29 -17 -11 19 -22 50 -16 20 4 22 6 9 14
-23 12 -22 114 1 128 19 10 16 12 -28 12 -51 0 -56 -2 -37 -13 9 -5 17 -21 17
-34 0 -22 -5 -25 -35 -25 -30 0 -35 3 -35 23 0 13 5 28 12 35 7 7 8 12 3 13
-58 4 -75 3 -75 -8z"/>
<path d="M1930 228 c0 -4 6 -11 13 -15 19 -12 17 -106 -2 -118 -13 -8 -7 -11
24 -15 66 -8 105 -1 105 21 0 23 -7 24 -26 4 -16 -16 -53 -21 -55 -7 0 4 -2
15 -4 25 -3 15 1 18 20 13 26 -7 39 12 24 35 -6 10 -9 10 -9 2 0 -7 -9 -13
-19 -13 -30 0 -22 55 8 56 13 1 25 -5 28 -12 8 -22 25 -16 21 8 -3 20 -9 22
-66 22 -34 1 -62 -2 -62 -6z"/>
<path d="M2092 223 c-16 -11 -16 -12 1 -13 15 0 18 -8 16 -55 -2 -36 -8 -59
-17 -64 -21 -12 15 -19 53 -10 27 6 28 7 9 14 -15 5 -20 13 -17 26 6 22 33 26
33 5 0 -20 48 -56 66 -49 11 4 7 12 -16 36 -27 27 -28 32 -15 47 19 21 19 44
0 60 -21 17 -93 19 -113 3z m93 -23 c7 -23 -10 -50 -31 -50 -9 0 -14 12 -14
35 0 28 4 35 19 35 11 0 23 -9 26 -20z"/>
<path d="M2553 232 c-27 -4 -63 -47 -63 -74 0 -10 7 -32 15 -48 31 -61 128
-42 141 28 11 60 -32 104 -93 94z m34 -20 c33 -21 35 -97 4 -117 -20 -11 -49
5 -59 33 -20 59 14 110 55 84z"/>
<path d="M2930 222 c0 -7 5 -10 10 -7 17 11 15 -101 -2 -123 -11 -13 -7 -14
52 -14 70 0 76 2 77 22 2 24 -12 27 -21 4 -9 -23 -58 -14 -62 10 -4 31 6 39
27 20 18 -16 19 -16 19 16 0 27 -3 31 -12 22 -20 -20 -38 -14 -38 12 0 29 34
41 54 20 20 -19 26 -18 26 6 0 16 -7 20 -37 21 -21 0 -50 2 -65 3 -18 1 -28
-3 -28 -12z"/>
<path d="M3082 213 c-2 -29 14 -39 21 -13 3 11 11 20 19 20 21 0 22 -104 2
-125 -14 -13 -10 -15 33 -14 26 1 41 3 32 6 -19 5 -26 41 -19 93 5 34 30 55
30 26 0 -8 5 -18 10 -21 6 -4 10 6 10 22 0 28 0 28 -68 28 -63 0 -68 -2 -70
-22z"/>
<path d="M3478 229 c-5 -4 -3 -9 6 -12 24 -9 23 -115 -1 -125 -13 -5 -4 -9 27
-12 66 -7 97 -1 103 21 6 23 -9 25 -21 3 -13 -23 -56 -14 -60 12 -2 12 4 24
12 27 11 4 16 1 16 -11 0 -15 2 -15 10 -2 5 8 10 24 10 35 0 15 -3 16 -12 7
-21 -21 -40 -14 -36 15 2 20 9 27 26 28 13 1 26 -4 29 -12 8 -19 19 -16 20 7
1 11 -4 20 -10 21 -51 4 -111 3 -119 -2z"/>
<path d="M3633 223 c-3 -6 -3 -20 0 -30 4 -16 6 -15 12 5 8 24 30 30 37 10 10
-27 -3 -103 -19 -115 -13 -10 -14 -13 -2 -14 8 0 29 -1 47 -2 33 -2 43 7 17
17 -11 4 -14 20 -12 62 2 61 17 79 34 42 l10 -23 7 23 c5 13 5 26 2 29 -11 11
-129 8 -133 -4z"/>
<path d="M3797 232 c-9 -2 -17 -12 -17 -22 0 -27 17 -33 23 -9 3 12 12 19 19
17 20 -7 21 -110 0 -125 -13 -11 -8 -13 34 -13 38 1 45 3 32 11 -24 13 -27
129 -4 129 8 0 16 -10 19 -22 4 -23 4 -23 14 2 6 14 9 27 8 28 -5 5 -107 8
-128 4z"/>
<path d="M3948 229 c-7 -4 -5 -10 3 -15 21 -13 20 -106 0 -119 -12 -8 -4 -11
34 -15 70 -7 95 -1 95 21 0 23 -16 25 -24 4 -9 -25 -59 -14 -61 13 -2 26 21
37 33 15 8 -13 10 -10 14 11 5 25 3 27 -22 21 -24 -5 -27 -3 -25 22 1 21 6 27
23 27 12 0 28 -8 36 -19 15 -19 15 -19 16 8 0 15 -3 27 -7 28 -39 4 -107 3
-115 -2z"/>
<path d="M4115 230 c-23 -5 -26 -9 -14 -14 23 -10 24 -112 1 -126 -13 -7 -4
-9 33 -9 39 0 46 2 33 10 -22 12 -24 46 -3 46 8 0 15 -4 15 -9 0 -18 49 -58
65 -52 12 5 10 12 -15 37 -27 27 -28 32 -15 47 43 48 -14 88 -100 70z m75 -25
c16 -20 3 -54 -20 -52 -16 1 -20 9 -20 34 0 36 18 44 40 18z"/>
</g>
</svg>
